<?xml version="1.0" encoding="UTF-8"?><svg id="a" xmlns="http://www.w3.org/2000/svg" width="512" height="512" viewBox="0 0 512 512"><defs><style>.b{fill:transparent;}</style></defs><path class="b" d="M512,97v415H0V0h512v57h-34v40h34ZM468.99,209l-18.85,18.72c21.62,151.03-130.08,269.11-271.82,208.45-94.26-40.34-141.8-148.24-107.34-245.69C113.79,69.42,261.69,20.89,367.51,94.83l15.47-15.33C265.3-7.73,93.19,49.5,48.71,188.21c-60.4,188.39,139.83,353.87,313.31,258.31,83.27-45.87,127.6-144.2,106.97-237.52ZM444,47h-40v40h40v-40ZM447,105h-42v42h42v-42ZM334,324l-98.5-213.98-119.5,249.98h29.5c33.09-41.45,80.59-70.09,131.83-82.9l20.67,46.9h36ZM494,119h-26v26h26v-26ZM384,121h-32v32h32v-32ZM395,168h-114l11.5,23h63.5l-44.61,58.97,14.11,29.01,69.5-91.48v-19.5ZM468,168h-28v30h28v-30ZM420,174h-22v15.5c0,1.66-18.57,22.27-20,26.5h42v-42ZM277,340l9.66-16.49-12.16-26.49-51.5,65.98h147.5l13.5-23h-107Z"/><rect x="478" y="57" width="34" height="40"/><path d="M468.99,209c20.63,93.32-23.7,191.65-106.97,237.52C188.54,542.08-11.68,376.6,48.71,188.21,93.19,49.5,265.3-7.73,382.98,79.5l-15.47,15.33c-105.82-73.94-253.72-25.41-296.53,95.65-34.46,97.45,13.08,205.35,107.34,245.69,141.74,60.66,293.44-57.42,271.82-208.45l18.85-18.72Z"/><path d="M334,324h-36l-20.67-46.9c-51.24,12.8-98.74,41.45-131.83,82.9h-29.5l119.5-249.98,98.5,213.98ZM235.98,182l-50.98,106.99,24.32-15.17c17.9-9.83,37.38-16.11,56.24-23.79l-29.59-68.04Z"/><polygon points="395 168 395 187.5 325.5 278.98 311.39 249.97 356 191 292.5 191 281 168 395 168"/><polygon points="277 340 384 340 370.5 363 223 363 274.5 297.02 286.66 323.51 277 340"/><rect x="405" y="105" width="42" height="42"/><rect x="404" y="47" width="40" height="40"/><path d="M420,174v42h-42c1.43-4.23,20-24.84,20-26.5v-15.5h22Z"/><rect x="352" y="121" width="32" height="32"/><rect x="440" y="168" width="28" height="30"/><rect x="468" y="119" width="26" height="26"/><path class="b" d="M235.98,182l29.59,68.04c-18.86,7.68-38.34,13.95-56.24,23.79l-24.32,15.17,50.98-106.99Z"/></svg>