<?xml version="1.0" encoding="UTF-8"?><svg id="a" xmlns="http://www.w3.org/2000/svg" viewBox="0 0 454.45 507.5"><defs><style>.b{fill:#000000;}</style></defs><path class="b" d="M224.15.8L3.19,124.98c-1.97,1.11-3.19,3.19-3.19,5.46v244.35c0,2.24,1.2,4.32,3.15,5.43l220.97,126.46c1.93,1.1,4.29,1.1,6.22,0l220.97-126.46c1.95-1.11,3.15-3.19,3.15-5.43v-243.88c0-2.26-1.22-4.34-3.18-5.45L230.29.81c-1.91-1.07-4.23-1.08-6.14,0ZM429.14,369.87l-199.05,109.65c-1.92,1.06-4.26,1.03-6.16-.07L24.71,363.79c-1.93-1.12-3.12-3.18-3.12-5.41v-217.56c0-2.29,1.25-4.39,3.26-5.49L223.76,26.54c1.87-1.02,4.13-1.02,6,0l199.37,108.79c2.01,1.1,3.26,3.2,3.26,5.49v223.57c0,2.28-1.24,4.38-3.24,5.48Z"/><rect class="b" x="215.25" y="98.51" width="23.71" height="48.12" rx="3.87" ry="3.87"/><path class="b" d="M328.74,135.28l-30.84,31.03c-1.22,1.22-1.9,2.88-1.9,4.61v10.1c0,2.14,1.73,3.87,3.87,3.87h10.9c1.81,0,3.53-.75,4.77-2.06l29.61-31.55c2.43-2.59,2.35-6.64-.18-9.13l-7.02-6.92c-2.56-2.53-6.69-2.5-9.22.05Z"/><rect class="b" x="327.46" y="226.91" width="72.06" height="25.59" rx="4.23" ry="4.23"/><path class="b" d="M125.48,135.28l30.84,31.03c1.22,1.22,1.9,2.88,1.9,4.61v10.1c0,2.14-1.73,3.87-3.87,3.87h-10.9c-1.81,0-3.53-.75-4.77-2.06l-29.61-31.55c-2.43-2.59-2.35-6.64.18-9.13l7.02-6.92c2.56-2.53,6.69-2.5,9.22.05Z"/><rect class="b" x="53.87" y="226.91" width="72.06" height="25.59" rx="4.23" ry="4.23"/><path class="b" d="M279.34,302.73c14.54-14.1,24.94-34.13,24.94-55.98,0-42.85-34.73-77.58-77.58-77.58s-77.58,34.73-77.58,77.58c0,22.13,9.27,42.1,24.13,56.23l106.09-.25Z"/><rect class="b" x="50.47" y="308.12" width="353.04" height="20.19" rx="3.66" ry="3.66"/><path class="b" d="M334.24,384.15c-.8-6.87-4.34-20.16-19.31-29.26-2.07-1.26-4.45-1.94-6.88-1.94h-163.11c-2.43,0-4.81.68-6.88,1.94-14.98,9.1-18.52,22.39-19.31,29.26-.28,2.39,1.61,4.48,4.02,4.51,14.63.14,14.22.54,26.36-11.76,13.2-13.38,25.06-13.38,25.06-13.38,0,0,26.22.42,52.31.49,26.1-.07,52.31-.49,52.31-.49,0,0,11.85,0,25.06,13.38,12.14,12.3,11.73,11.9,26.36,11.76,2.41-.02,4.29-2.12,4.02-4.51Z"/></svg>