<?xml version="1.0" encoding="iso-8859-1"?><!-- Generator: Adobe Illustrator 22.1.0, SVG Export Plug-In . SVG Version: 6.00 Build 0)  --><svg xmlns="http://www.w3.org/2000/svg" xmlns:xlink="http://www.w3.org/1999/xlink" viewBox="0 0 24 24" width="100px" height="100px"><g id="Rounded"><line style="fill:none;stroke:#000000;stroke-width:2;stroke-linecap:round;stroke-miterlimit:10;" x1="23" y1="12" x2="22" y2="12"/><line style="fill:none;stroke:#000000;stroke-width:2;stroke-linecap:round;stroke-miterlimit:10;" x1="2" y1="12" x2="1" y2="12"/><line style="fill:none;stroke:#000000;stroke-width:2;stroke-linecap:round;stroke-miterlimit:10;" x1="12" y1="2" x2="12" y2="1"/><line style="fill:none;stroke:#000000;stroke-width:2;stroke-linecap:round;stroke-miterlimit:10;" x1="19.778" y1="19.778" x2="19.071" y2="19.071"/><line style="fill:none;stroke:#000000;stroke-width:2;stroke-linecap:round;stroke-miterlimit:10;" x1="4.929" y1="4.929" x2="4.222" y2="4.222"/><line style="fill:none;stroke:#000000;stroke-width:2;stroke-linecap:round;stroke-miterlimit:10;" x1="4.222" y1="19.778" x2="4.929" y2="19.071"/><line style="fill:none;stroke:#000000;stroke-width:2;stroke-linecap:round;stroke-miterlimit:10;" x1="19.071" y1="4.929" x2="19.778" y2="4.222"/><path d="M19,12c0-3.86-3.14-7-7-7s-7,3.14-7,7c0,2.785,1.639,5.189,4,6.315V21c0,1.103,0.897,2,2,2h2c1.103,0,2-0.897,2-2v-2.685C17.361,17.189,19,14.785,19,12z"/></g></svg>