<?xml version="1.0" encoding="iso-8859-1"?>
<!-- Generator: Adobe Illustrator 24.2.3, SVG Export Plug-In . SVG Version: 6.00 Build 0)  -->
<svg version="1.1" id="Layer_1" xmlns="http://www.w3.org/2000/svg" xmlns:xlink="http://www.w3.org/1999/xlink" x="0px" y="0px"
	 viewBox="0 0 24 24" style="enable-background:new 0 0 24 24;" xml:space="preserve">
<path style="fill:none;stroke:#000000;stroke-width:2;stroke-miterlimit:10;" d="M4,12h5c0.552,0,1-0.448,1-1V4c0-0.552-0.448-1-1-1
	H4C3.448,3,3,3.448,3,4v7C3,11.552,3.448,12,4,12z"/>
<path style="fill:none;stroke:#000000;stroke-width:2;stroke-miterlimit:10;" d="M15,8h5c0.552,0,1-0.448,1-1V4c0-0.552-0.448-1-1-1
	h-5c-0.552,0-1,0.448-1,1v3C14,7.552,14.448,8,15,8z"/>
<path style="fill:none;stroke:#000000;stroke-width:2;stroke-miterlimit:10;" d="M4,21h5c0.552,0,1-0.448,1-1v-3
	c0-0.552-0.448-1-1-1H4c-0.552,0-1,0.448-1,1v3C3,20.552,3.448,21,4,21z"/>
<path style="fill:none;stroke:#000000;stroke-width:2;stroke-miterlimit:10;" d="M15,21h5c0.552,0,1-0.448,1-1v-7
	c0-0.552-0.448-1-1-1h-5c-0.552,0-1,0.448-1,1v7C14,20.552,14.448,21,15,21z"/>
</svg>