<?xml version="1.0" encoding="iso-8859-1"?><!-- Generator: Adobe Illustrator 22.1.0, SVG Export Plug-In . SVG Version: 6.00 Build 0)  --><svg xmlns="http://www.w3.org/2000/svg" xmlns:xlink="http://www.w3.org/1999/xlink" viewBox="0 0 24 24" width="100px" height="100px"><g id="Rounded"><path d="M23.71,22.31L22.2,20.8C22.7,20,23,19,23,18c0-2.8-2.2-5-4.999-5C15.291,13,13,15.291,13,18.001C13,20.8,15.2,23,18,23c1,0,2-0.3,2.8-0.8l1.51,1.51c0.387,0.387,1.013,0.387,1.4,0l0,0C24.097,23.323,24.097,22.697,23.71,22.31z M18,21c-1.7,0-3-1.3-3-3s1.3-3,3-3s3,1.3,3,3S19.7,21,18,21z"/><path d="M19,3H5C3.895,3,3,3.895,3,5v2h18V5C21,3.895,20.105,3,19,3z"/><path d="M8.5,12h-1C7.224,12,7,11.776,7,11.5v-1C7,10.224,7.224,10,7.5,10h1C8.776,10,9,10.224,9,10.5v1C9,11.776,8.776,12,8.5,12z"/><path d="M16,12h-4c-0.552,0-1-0.448-1-1v0c0-0.552,0.448-1,1-1h4c0.552,0,1,0.448,1,1v0C17,11.552,16.552,12,16,12z"/><path d="M8.5,16h-1C7.224,16,7,15.776,7,15.5v-1C7,14.224,7.224,14,7.5,14h1C8.776,14,9,14.224,9,14.5v1C9,15.776,8.776,16,8.5,16z"/><path d="M10.171,19H5V7h14l-0.001,3.171c0,0.552,0.448,1,1,1h0c0.552,0,1-0.448,1-1V6c0-0.552-0.448-1-1-1H4C3.448,5,3,5.448,3,6v13c0,1.105,0.895,2,2,2h5.171c0.552,0,1-0.448,1-1v0C11.171,19.448,10.724,19,10.171,19z"/></g></svg>